<svg width="16.000000" height="16.000000" viewBox="0 0 16 16" fill="none" xmlns="http://www.w3.org/2000/svg" xmlns:xlink="http://www.w3.org/1999/xlink">
	<desc>
			Created with Pixso.
	</desc>
	<defs>
		<clipPath id="clip224_8628">
			<rect id="add_circle_outline" width="16.000000" height="16.000000" fill="white" fill-opacity="0"/>
		</clipPath>
	</defs>
	<g clip-path="url(#clip224_8628)">
		<path id="Vector" d="M8 4.6665C7.6333 4.6665 7.33331 4.96655 7.33331 5.33325L7.33331 7.33325L5.33331 7.33325C4.96667 7.33325 4.66663 7.6333 4.66663 8C4.66663 8.3667 4.96667 8.6665 5.33331 8.6665L7.33331 8.6665L7.33331 10.6665C7.33331 11.0332 7.6333 11.3333 8 11.3333C8.36664 11.3333 8.66663 11.0332 8.66663 10.6665L8.66663 8.6665L10.6666 8.6665C11.0333 8.6665 11.3333 8.3667 11.3333 8C11.3333 7.6333 11.0333 7.33325 10.6666 7.33325L8.66663 7.33325L8.66663 5.33325C8.66663 4.96655 8.36664 4.6665 8 4.6665ZM8 1.33325C4.32001 1.33325 1.33331 4.31982 1.33331 8C1.33331 11.6799 4.32001 14.6665 8 14.6665C11.68 14.6665 14.6666 11.6799 14.6666 8C14.6666 4.31982 11.68 1.33325 8 1.33325ZM8 13.3333C5.06 13.3333 2.66663 10.9399 2.66663 8C2.66663 5.05981 5.06 2.6665 8 2.6665C10.94 2.6665 13.3333 5.05981 13.3333 8C13.3333 10.9399 10.94 13.3333 8 13.3333Z" fill="#9873FF" fill-opacity="1.000000" fill-rule="nonzero"/>
	</g>
</svg>
