<svg width="16.000000" height="16.000000" viewBox="0 0 16 16" fill="none" xmlns="http://www.w3.org/2000/svg" xmlns:xlink="http://www.w3.org/1999/xlink">
	<desc>
			Created with Pixso.
	</desc>
	<defs>
		<clipPath id="clip224_1352">
			<rect id="cancel" width="16.000000" height="16.000000" fill="white" fill-opacity="0"/>
		</clipPath>
	</defs>
	<g opacity="0.700000">
		<g clip-path="url(#clip224_1352)">
			<g opacity="0.870000"/>
			<path id="Vector" d="M8 2C4.68201 2 2 4.68188 2 8C2 11.3181 4.68201 14 8 14C11.318 14 14 11.3181 14 8C14 4.68188 11.318 2 8 2ZM8 12.8C5.354 12.8 3.19995 10.646 3.19995 8C3.19995 5.354 5.354 3.19995 8 3.19995C10.646 3.19995 12.8 5.354 12.8 8C12.8 10.646 10.646 12.8 8 12.8ZM10.1541 5L8 7.15405L5.84595 5L5 5.84595L7.15405 8L5 10.1541L5.84595 11L8 8.84595L10.1541 11L11 10.1541L8.84595 8L11 5.84595L10.1541 5Z" fill="#F06A4D" fill-opacity="1.000000" fill-rule="nonzero"/>
		</g>
	</g>
</svg>
