<svg width="16.000000" height="16.000000" viewBox="0 0 16 16" fill="none" xmlns="http://www.w3.org/2000/svg" xmlns:xlink="http://www.w3.org/1999/xlink">
	<desc>
			Created with Pixso.
	</desc>
	<defs/>
	<path id="fb" d="M8 0C3.59998 0 0 3.60645 0 8.0481C0 12.0642 2.92798 15.3977 6.75195 16L6.75195 10.3774L4.71997 10.3774L4.71997 8.0481L6.75195 8.0481L6.75195 6.27319C6.75195 4.25708 7.94397 3.14868 9.776 3.14868C10.6479 3.14868 11.5599 3.30127 11.5599 3.30127L11.5599 5.28516L10.552 5.28516C9.55994 5.28516 9.24805 5.90356 9.24805 6.53809L9.24805 8.0481L11.472 8.0481L11.1119 10.3774L9.24805 10.3774L9.24805 16C11.1332 15.7012 12.8497 14.7354 14.0879 13.2771C15.326 11.8188 16.0043 9.96436 16 8.0481C16 3.60645 12.4 0 8 0Z" fill="#9873FF" fill-opacity="1.000000" fill-rule="nonzero"/>
</svg>
