<svg width="50.000000" height="50.000000" viewBox="0 0 50 50" fill="none" xmlns="http://www.w3.org/2000/svg" xmlns:xlink="http://www.w3.org/1999/xlink">
	<desc>
			Created with Pixso.
	</desc>
	<defs/>
	<circle id="Ellipse 27" cx="25.000000" cy="25.000000" r="25.000000" fill="#9873FF" fill-opacity="1.000000"/>
	<path id="skb." d="M17.2617 29.082Q17.2617 30.084 16.7915 30.7739Q16.3213 31.4639 15.3896 31.8198Q14.458 32.1758 13.0693 32.1758Q12.041 32.1758 11.3071 32.0439Q10.5732 31.9121 9.82617 31.6045L9.82617 29.3896Q10.626 29.75 11.5444 29.9829Q12.4629 30.2158 13.1572 30.2158Q13.9395 30.2158 14.2778 29.9829Q14.6162 29.75 14.6162 29.3721Q14.6162 29.126 14.48 28.9282Q14.3438 28.7305 13.8955 28.48Q13.4473 28.2295 12.4893 27.8252Q11.5664 27.4385 10.9731 27.043Q10.3799 26.6475 10.0942 26.1069Q9.80859 25.5664 9.80859 24.7314Q9.80859 23.3691 10.8677 22.6792Q11.9268 21.9893 13.7021 21.9893Q14.6162 21.9893 15.4468 22.1738Q16.2773 22.3584 17.1562 22.7627L16.3477 24.6963Q15.6182 24.3799 14.9722 24.1777Q14.3262 23.9756 13.6582 23.9756Q13.0693 23.9756 12.7705 24.1338Q12.4717 24.292 12.4717 24.6172Q12.4717 24.8545 12.6255 25.0391Q12.7793 25.2236 13.2231 25.4478Q13.667 25.6719 14.5283 26.0234Q15.3633 26.3662 15.9785 26.7397Q16.5938 27.1133 16.9277 27.6626Q17.2617 28.2119 17.2617 29.082ZM22.0342 18.3242L22.0342 24.4414Q22.0342 24.9951 21.9902 25.5488Q21.9463 26.1025 21.8936 26.6562L21.9287 26.6562Q22.2012 26.2695 22.4868 25.8916Q22.7725 25.5137 23.0977 25.1621L25.8486 22.1738L28.8721 22.1738L24.9697 26.4365L29.1094 32L26.0156 32L23.1855 28.0186L22.0342 28.9414L22.0342 32L19.3535 32L19.3535 18.3242L22.0342 18.3242ZM33.1963 18.3242L33.1963 21.5059Q33.1963 22.0596 33.1655 22.6045Q33.1348 23.1494 33.0908 23.4482L33.1963 23.4482Q33.583 22.8418 34.251 22.4155Q34.9189 21.9893 35.9824 21.9893Q37.6348 21.9893 38.6631 23.2812Q39.6914 24.5732 39.6914 27.0693Q39.6914 28.748 39.2168 29.8862Q38.7422 31.0244 37.8896 31.6001Q37.0371 32.1758 35.9121 32.1758Q34.8311 32.1758 34.207 31.7891Q33.583 31.4023 33.1963 30.9189L33.0117 30.9189L32.5635 32L30.5156 32L30.5156 18.3242L33.1963 18.3242ZM35.1211 24.1338Q34.418 24.1338 34.0049 24.4238Q33.5918 24.7139 33.4028 25.2939Q33.2139 25.874 33.1963 26.7617L33.1963 27.0518Q33.1963 28.4844 33.6182 29.2446Q34.04 30.0049 35.1562 30.0049Q35.9824 30.0049 36.4702 29.2402Q36.958 28.4756 36.958 27.0342Q36.958 25.5928 36.4658 24.8633Q35.9736 24.1338 35.1211 24.1338ZM41.5283 30.7432Q41.5283 29.917 41.981 29.583Q42.4336 29.249 43.0752 29.249Q43.6992 29.249 44.1519 29.583Q44.6045 29.917 44.6045 30.7432Q44.6045 31.5342 44.1519 31.8857Q43.6992 32.2373 43.0752 32.2373Q42.4336 32.2373 41.981 31.8857Q41.5283 31.5342 41.5283 30.7432Z" fill="#FFFFFF" fill-opacity="1.000000" fill-rule="evenodd"/>
</svg>
