<svg width="16.000000" height="16.000000" viewBox="0 0 16 16" fill="none" xmlns="http://www.w3.org/2000/svg" xmlns:xlink="http://www.w3.org/1999/xlink">
	<desc>
			Created with Pixso.
	</desc>
	<defs/>
	<g opacity="0.700000">
		<rect id="phone" width="16.000000" height="16.000000" fill="#FFFFFF" fill-opacity="0"/>
		<circle id="Ellipse 34" cx="8.000000" cy="8.000000" r="8.000000" fill="#9873FF" fill-opacity="1.000000"/>
		<path id="Vector" d="M11.5601 9.5022C11.0133 9.5022 10.4845 9.41333 9.99109 9.25342C9.83557 9.19995 9.66223 9.23999 9.54224 9.36011L8.84448 10.2356C7.58667 9.6355 6.40894 8.5022 5.78223 7.19995L6.64893 6.46216C6.76892 6.33789 6.80444 6.16455 6.75562 6.00879C6.59106 5.51562 6.50671 4.98657 6.50671 4.43994C6.50671 4.19995 6.30664 4 6.06665 4L4.52893 4C4.28894 4 4 4.10669 4 4.43994C4 8.56885 7.43555 12 11.5601 12C11.8756 12 12 11.72 12 11.4756L12 9.94214C12 9.70215 11.8 9.5022 11.5601 9.5022Z" fill="#FFFFFF" fill-opacity="1.000000" fill-rule="nonzero"/>
	</g>
</svg>
