<svg width="16.000000" height="16.000000" viewBox="0 0 16 16" fill="none" xmlns="http://www.w3.org/2000/svg" xmlns:xlink="http://www.w3.org/1999/xlink">
	<desc>
			Created with Pixso.
	</desc>
	<defs/>
	<g opacity="0.700000">
		<rect id="vk" width="16.000000" height="16.000000" fill="#FFFFFF" fill-opacity="0"/>
		<path id="Vector" d="M8 0C3.58191 0 0 3.58179 0 8C0 12.4182 3.58191 16 8 16C12.4181 16 16 12.4182 16 8C16 3.58179 12.4181 0 8 0ZM12.058 8.86523C12.4309 9.22949 12.8253 9.57227 13.1602 9.97412C13.3083 10.1519 13.4482 10.3357 13.5546 10.5422C13.7064 10.8372 13.5693 11.1604 13.3054 11.178L11.6665 11.1775C11.2432 11.2126 10.9064 11.042 10.6223 10.7524C10.3956 10.522 10.1853 10.2756 9.96692 10.0371C9.87781 9.93921 9.78381 9.84692 9.67188 9.77441C9.44849 9.62915 9.25427 9.67358 9.12634 9.90698C8.99585 10.1445 8.96606 10.4077 8.95361 10.6721C8.93579 11.0586 8.81921 11.1597 8.43152 11.1777C7.60291 11.2166 6.81677 11.0908 6.08606 10.6731C5.44153 10.3047 4.94263 9.78467 4.50781 9.1958C3.66125 8.0481 3.01294 6.78833 2.43042 5.49243C2.29919 5.20068 2.39514 5.04443 2.71716 5.03857C3.25208 5.02808 3.78699 5.02954 4.3219 5.03809C4.53955 5.0415 4.68359 5.16602 4.76721 5.37134C5.05627 6.08252 5.41064 6.75928 5.85474 7.38696C5.97314 7.55396 6.09387 7.7207 6.26599 7.83862C6.45581 7.96899 6.60046 7.92578 6.69006 7.71387C6.74731 7.5791 6.77209 7.43506 6.78455 7.29077C6.82703 6.79639 6.83215 6.302 6.75842 5.80933C6.71265 5.50122 6.53931 5.30225 6.23206 5.2439C6.07556 5.21436 6.09851 5.15625 6.17456 5.06689C6.30664 4.91235 6.43042 4.81689 6.67773 4.81689L8.52954 4.81665C8.82141 4.87378 8.88684 5.00488 8.92639 5.29883L8.9281 7.35645C8.92468 7.47021 8.98523 7.80762 9.18945 7.88208C9.35315 7.93604 9.46118 7.80469 9.55908 7.70117C10.0032 7.22998 10.3196 6.67358 10.6029 6.0979C10.7279 5.84424 10.8358 5.58154 10.9406 5.31812C11.0184 5.12354 11.1396 5.02783 11.3593 5.03101L13.1425 5.0332C13.1949 5.0332 13.2483 5.03369 13.3004 5.04272C13.601 5.09424 13.6832 5.22339 13.5902 5.5166C13.444 5.97729 13.1597 6.36084 12.8817 6.74561C12.5837 7.15747 12.2661 7.55469 11.9711 7.96851C11.7001 8.34644 11.7214 8.53687 12.058 8.86523Z" fill="#9873FF" fill-opacity="1.000000" fill-rule="nonzero"/>
	</g>
</svg>
